<?xml version="1.0" standalone="no"?>
<!DOCTYPE svg PUBLIC "-//W3C//DTD SVG 1.1//EN" "http://www.w3.org/Graphics/SVG/1.1/DTD/svg11.dtd">
<svg xmlns="http://www.w3.org/2000/svg" id="Layer_1" version="1.1" viewBox="0 0 1000 1000" width="1000" height="1000">
  <!-- Generator: Adobe Illustrator 29.0.0, SVG Export Plug-In . SVG Version: 2.1.0 Build 186)  -->
  <defs>
    <style>
      .st0 {
        fill: #29a39a;
      }
    </style>
  </defs>
  <g>
    <path class="st0" d="M296.14,821.31v-92.26h-17.68v-14.38h50.63v14.38h-17.67v92.26h-15.28Z"/>
    <path class="st0" d="M335.68,821.31l23.82-106.64h12.73l23.82,106.64h-15.28l-4.49-22.91h-20.82l-4.49,22.91h-15.28ZM373.43,784.01l-7.49-38.64h-.3l-7.49,38.64h15.28Z"/>
    <path class="st0" d="M418.51,821.31v-106.64h22.91c4.19,0,7.89.55,11.08,1.65,3.19,1.1,6.09,3.05,8.69,5.84s4.39,6.06,5.39,9.81c1,3.75,1.5,8.81,1.5,15.21,0,4.79-.28,8.84-.82,12.13-.55,3.29-1.72,6.39-3.52,9.29-2.1,3.5-4.89,6.22-8.39,8.16-3.49,1.95-8.09,2.92-13.78,2.92h-7.79v41.64h-15.28ZM433.79,729.05v36.24h7.34c3.1,0,5.49-.45,7.19-1.35,1.7-.9,2.95-2.14,3.75-3.74.8-1.5,1.27-3.34,1.42-5.54.15-2.19.22-4.64.22-7.34,0-2.49-.05-4.87-.15-7.11-.1-2.25-.55-4.22-1.35-5.92-.8-1.7-2-3-3.59-3.89-1.6-.9-3.89-1.35-6.89-1.35h-7.94Z"/>
    <path class="st0" d="M494.45,821.31v-106.64h22.91c4.19,0,7.89.55,11.08,1.65,3.19,1.1,6.09,3.05,8.69,5.84s4.39,6.06,5.39,9.81c1,3.75,1.5,8.81,1.5,15.21,0,4.79-.28,8.84-.82,12.13-.55,3.29-1.72,6.39-3.52,9.29-2.1,3.5-4.89,6.22-8.39,8.16-3.49,1.95-8.09,2.92-13.78,2.92h-7.79v41.64h-15.28ZM509.72,729.05v36.24h7.34c3.1,0,5.49-.45,7.19-1.35,1.7-.9,2.95-2.14,3.75-3.74.8-1.5,1.27-3.34,1.42-5.54.15-2.19.22-4.64.22-7.34,0-2.49-.05-4.87-.15-7.11-.1-2.25-.55-4.22-1.35-5.92-.8-1.7-2-3-3.59-3.89-1.6-.9-3.89-1.35-6.89-1.35h-7.94Z"/>
    <path class="st0" d="M570.83,821.31v-106.64h15.28v106.64h-15.28Z"/>
    <path class="st0" d="M615.32,821.31v-106.64h14.68l23.06,64.26h.3v-64.26h15.28v106.64h-14.38l-23.36-64.11h-.3v64.11h-15.28Z"/>
    <path class="st0" d="M696.49,739.83c0-4.29.75-8.09,2.25-11.38,1.5-3.3,3.49-6.04,5.99-8.24,2.4-2.1,5.12-3.69,8.16-4.79,3.04-1.1,6.12-1.65,9.21-1.65s6.16.55,9.21,1.65c3.05,1.1,5.82,2.7,8.31,4.79,2.4,2.2,4.34,4.94,5.84,8.24,1.5,3.3,2.25,7.09,2.25,11.38v5.39h-15.27v-5.39c0-3.69-1.03-6.42-3.07-8.16-2.05-1.75-4.47-2.62-7.26-2.62s-5.22.87-7.26,2.62-3.07,4.47-3.07,8.16v56.32c0,3.7,1.02,6.42,3.07,8.16,2.05,1.75,4.47,2.62,7.26,2.62s5.22-.87,7.26-2.62c2.04-1.74,3.07-4.47,3.07-8.16v-20.07h-12.13v-13.48h27.41v33.55c0,4.49-.75,8.34-2.25,11.53-1.5,3.2-3.44,5.84-5.84,7.94-2.49,2.2-5.27,3.85-8.31,4.94-3.05,1.1-6.12,1.65-9.21,1.65s-6.17-.55-9.21-1.65c-3.05-1.1-5.77-2.75-8.16-4.94-2.5-2.1-4.49-4.74-5.99-7.94-1.5-3.19-2.25-7.04-2.25-11.53v-56.32Z"/>
  </g>
  <g>
    <path class="st0" d="M312.49,901.19v-47.4h10.19c1.86,0,3.51.24,4.93.73s2.7,1.35,3.86,2.6c1.15,1.24,1.95,2.7,2.4,4.36s.67,3.92.67,6.76c0,2.13-.12,3.93-.37,5.39s-.77,2.84-1.56,4.13c-.93,1.55-2.18,2.76-3.73,3.63s-3.59,1.3-6.12,1.3h-3.46v18.5h-6.79ZM319.28,860.19v16.11h3.26c1.37,0,2.44-.2,3.19-.6.75-.4,1.31-.95,1.66-1.66.36-.67.57-1.49.63-2.46.07-.97.1-2.06.1-3.26,0-1.11-.02-2.16-.07-3.16-.05-1-.24-1.88-.6-2.63-.36-.75-.89-1.33-1.6-1.73-.71-.4-1.73-.6-3.06-.6h-3.53Z"/>
    <path class="st0" d="M342.91,901.19v-47.4h10.92c7.99,0,11.98,4.64,11.98,13.91,0,2.8-.43,5.17-1.3,7.12-.86,1.95-2.39,3.53-4.56,4.73l7.32,21.64h-7.19l-6.32-20.24h-4.06v20.24h-6.79ZM349.7,860.19v14.78h3.86c1.2,0,2.15-.17,2.86-.5.71-.33,1.26-.81,1.66-1.43.35-.62.6-1.39.73-2.3.13-.91.2-1.96.2-3.16s-.07-2.25-.2-3.16-.4-1.7-.8-2.36c-.84-1.24-2.44-1.86-4.79-1.86h-3.53Z"/>
    <path class="st0" d="M374.8,901.19v-47.4h6.79v47.4h-6.79Z"/>
    <path class="st0" d="M391.51,901.19v-47.4h6.52l8.72,25.1h.14l8.65-25.1h6.59v47.4h-6.79v-28.82h-.14l-6.72,20.37h-3.4l-6.66-20.37h-.13v28.82h-6.79Z"/>
    <path class="st0" d="M428.78,901.19l10.59-47.4h5.66l10.59,47.4h-6.79l-2-10.19h-9.26l-2,10.19h-6.79ZM445.56,884.62l-3.33-17.17h-.14l-3.33,17.17h6.79Z"/>
    <path class="st0" d="M462.27,901.19v-47.4h10.92c7.99,0,11.98,4.64,11.98,13.91,0,2.8-.43,5.17-1.3,7.12-.86,1.95-2.39,3.53-4.56,4.73l7.32,21.64h-7.19l-6.32-20.24h-4.06v20.24h-6.79ZM469.06,860.19v14.78h3.86c1.2,0,2.15-.17,2.86-.5.71-.33,1.26-.81,1.66-1.43.35-.62.6-1.39.73-2.3.13-.91.2-1.96.2-3.16s-.07-2.25-.2-3.16-.4-1.7-.8-2.36c-.84-1.24-2.44-1.86-4.79-1.86h-3.53Z"/>
    <path class="st0" d="M499.08,901.19v-20.04l-9.32-27.36h7.19l5.46,18.84h.13l5.46-18.84h7.19l-9.32,27.36v20.04h-6.79Z"/>
    <path class="st0" d="M559.59,867.44h-6.79v-1.53c0-1.56-.37-2.9-1.1-4.03s-1.96-1.7-3.69-1.7c-.93,0-1.69.18-2.26.53-.58.36-1.04.8-1.4,1.33-.36.58-.6,1.23-.73,1.96s-.2,1.5-.2,2.3c0,.93.03,1.71.1,2.33s.23,1.18.5,1.66c.27.49.65.91,1.16,1.26.51.36,1.21.71,2.1,1.07l5.19,2.07c1.51.58,2.73,1.25,3.66,2.03.93.78,1.66,1.68,2.2,2.7.49,1.07.82,2.28,1,3.63s.27,2.89.27,4.63c0,2-.2,3.85-.6,5.56s-1.04,3.16-1.93,4.36c-.93,1.24-2.15,2.22-3.66,2.93-1.51.71-3.35,1.07-5.53,1.07-1.64,0-3.17-.29-4.59-.86s-2.64-1.37-3.66-2.4c-1.02-1.02-1.83-2.21-2.43-3.56-.6-1.35-.9-2.83-.9-4.43v-2.53h6.79v2.13c0,1.24.37,2.36,1.1,3.36.73,1,1.96,1.5,3.69,1.5,1.15,0,2.05-.17,2.7-.5s1.14-.81,1.5-1.43.57-1.36.63-2.23c.07-.86.1-1.83.1-2.89,0-1.24-.05-2.26-.13-3.06-.09-.8-.27-1.44-.53-1.93-.31-.49-.72-.89-1.23-1.2-.51-.31-1.19-.64-2.03-1l-4.86-2c-2.93-1.2-4.89-2.79-5.89-4.76-1-1.97-1.5-4.45-1.5-7.42,0-1.77.24-3.46.73-5.06.49-1.6,1.22-2.98,2.19-4.13.93-1.15,2.12-2.07,3.56-2.76,1.44-.69,3.16-1.03,5.16-1.03,1.69,0,3.23.31,4.63.93,1.4.62,2.61,1.44,3.63,2.46,2.04,2.13,3.06,4.57,3.06,7.32v3.33Z"/>
    <path class="st0" d="M589.54,887.68v2.93c0,1.46-.28,2.85-.83,4.16-.56,1.31-1.32,2.47-2.3,3.49-.98,1.02-2.12,1.83-3.43,2.43-1.31.6-2.72.9-4.23.9-1.29,0-2.6-.18-3.93-.53-1.33-.35-2.53-.98-3.59-1.86s-1.94-2.03-2.63-3.43c-.69-1.4-1.03-3.19-1.03-5.36v-26.09c0-1.56.27-3,.8-4.33.53-1.33,1.29-2.49,2.26-3.46s2.14-1.74,3.49-2.3,2.85-.83,4.49-.83c3.2,0,5.79,1.04,7.79,3.13.98,1.02,1.74,2.23,2.3,3.63.55,1.4.83,2.92.83,4.56v2.66h-6.79v-2.26c0-1.33-.38-2.49-1.13-3.46-.75-.98-1.77-1.46-3.06-1.46-1.69,0-2.81.52-3.36,1.56s-.83,2.36-.83,3.96v24.23c0,1.37.3,2.53.9,3.46.6.93,1.68,1.4,3.23,1.4.44,0,.92-.08,1.43-.23.51-.16.98-.41,1.43-.77.4-.35.73-.84,1-1.46s.4-1.4.4-2.33v-2.33h6.79Z"/>
    <path class="st0" d="M598.4,901.19v-47.4h6.79v20.3h8.39v-20.3h6.79v47.4h-6.79v-21.1h-8.39v21.1h-6.79Z"/>
    <path class="st0" d="M629.68,864.98c0-1.91.33-3.59,1-5.06s1.55-2.68,2.66-3.66c1.07-.93,2.27-1.64,3.63-2.13s2.72-.73,4.09-.73,2.74.24,4.09.73,2.58,1.2,3.69,2.13c1.07.98,1.93,2.2,2.6,3.66.67,1.46,1,3.15,1,5.06v25.03c0,2-.33,3.7-1,5.12-.66,1.42-1.53,2.6-2.6,3.53-1.11.98-2.34,1.71-3.69,2.2-1.35.49-2.72.73-4.09.73s-2.74-.24-4.09-.73c-1.35-.49-2.56-1.22-3.63-2.2-1.11-.93-2-2.11-2.66-3.53s-1-3.13-1-5.12v-25.03ZM636.48,890.01c0,1.64.45,2.85,1.37,3.63.91.78,1.98,1.16,3.23,1.16s2.32-.39,3.23-1.16c.91-.77,1.36-1.98,1.36-3.63v-25.03c0-1.64-.46-2.85-1.36-3.63-.91-.78-1.99-1.16-3.23-1.16s-2.32.39-3.23,1.16c-.91.78-1.37,1.99-1.37,3.63v25.03Z"/>
    <path class="st0" d="M661.37,864.98c0-1.91.33-3.59,1-5.06s1.55-2.68,2.66-3.66c1.07-.93,2.27-1.64,3.63-2.13s2.72-.73,4.09-.73,2.74.24,4.09.73,2.58,1.2,3.69,2.13c1.07.98,1.93,2.2,2.6,3.66.67,1.46,1,3.15,1,5.06v25.03c0,2-.33,3.7-1,5.12-.66,1.42-1.53,2.6-2.6,3.53-1.11.98-2.34,1.71-3.69,2.2-1.35.49-2.72.73-4.09.73s-2.74-.24-4.09-.73c-1.35-.49-2.56-1.22-3.63-2.2-1.11-.93-2-2.11-2.66-3.53-.67-1.42-1-3.13-1-5.12v-25.03ZM668.16,890.01c0,1.64.45,2.85,1.37,3.63.91.78,1.98,1.16,3.23,1.16s2.32-.39,3.23-1.16c.91-.77,1.36-1.98,1.36-3.63v-25.03c0-1.64-.46-2.85-1.36-3.63-.91-.78-1.99-1.16-3.23-1.16s-2.32.39-3.23,1.16c-.91.78-1.37,1.99-1.37,3.63v25.03Z"/>
    <path class="st0" d="M693.45,901.19v-47.4h6.79v40.61h13.45v6.79h-20.24Z"/>
  </g>
  <circle class="st0" cx="516.19" cy="156.61" r="58.2"/>
  <path class="st0" d="M389.12,303.86c0,.27,0,.6.07.86-56.07,2.45-137.52-2.65-127.51-9.21,71.71-31.48,133.68-39.23,202.8-49.71,29.16-4.44,70.12-10.14,110.35-8.09-45.73,3.05-89.54,15.44-113.26,23.26-72.44,23.92-72.44,37.25-72.44,42.88Z"/>
  <path class="st0" d="M379.57,444.82c-13.52-14.85-19.15-38.57-8.02-55.27,6.23-9.34,16.63-15.18,27.11-19.22,17.36-6.69,36.12-9.34,54.68-8.09-.4,3.84-.8,7.62-1.26,11.47-5.37,1.72-10.6,3.91-15.84,6.56-15.77,8.09-35.59,27.44-22.86,39.83,10.27,10.07,18.89,17.96,30.42,22.53-1.52,11.93-3.11,23.79-4.84,35.72-19.09-6.16-46.33-19.09-59.38-33.53Z"/>
  <path class="st0" d="M245.5,551c49.97,24.52,110.15,43.28,173.11,53.62-1.39,7.75-2.78,15.44-4.24,23.13l-4.31,22.93c-67.27-18.62-127.98-51.76-164.56-99.68Z"/>
  <path class="st0" d="M584.56,641.59l21.87,23.39c-57.92,7.95-124.4,4.18-186.23-11.53l15.71-13.12c10.8-8.95,20.21-18.95,28.56-29.76,26.51,2.52,53.15,3.51,79.46,2.72,5.5-.2,11.07-.4,16.63-.8,7.42,10.14,15.38,19.88,23.99,29.09Z"/>
  <path class="st0" d="M754.42,574.13c-1.79,33.2-32.14,53.28-62.3,67.33-22.93,10.67-49.97,18.23-79.46,22.67l-5.3-33.67c-1.19-7.69-2.39-15.44-3.51-23.13,21.41-3.98,42.08-10.47,61.24-20.81,7.36-3.98,16.37-9.34,16.37-17.7,0-12.33-10.6-16.83-20.08-22.53-22.53-13.65-45.66-22.93-69.19-30.22-1.66-15.11-3.11-30.22-4.44-45.33,39.23,6.83,77.61,15.91,113,33.87,27.64,13.98,55.41,38.51,53.68,69.52Z"/>
  <path class="st0" d="M672.51,428.65c19.02-29.56,18.23-70.58-1.99-99.28-20.15-28.76-58.39-43.48-92.65-35.72-3.25.73-6.63,1.79-8.88,4.31-2.85,3.25-2.98,8.02-2.85,12.39.93,52.82,3.58,105.51,8.15,158.13,1.26,14.58,2.65,29.09,4.17,43.67,3.38,32.47,7.56,64.95,12.33,97.29,1.13,7.69,2.32,15.38,3.51,23.06-6.36-6.83-12.39-13.92-17.96-21.27-25.65-33.14-44.21-71.71-54.15-112.33-3.18-12.72-5.5-25.71-6.89-38.77-3.31,11.66-6.76,23.39-10.4,35.13-12.92,41.22-29.09,81.78-56.13,113.66-6.49,7.62-13.52,14.71-21.34,21.21,1.46-7.82,2.92-15.64,4.24-23.53,7.55-41.29,14.25-82.78,20.15-124.4,1.72-11.86,3.31-23.73,4.84-35.59,3.38-25.38,6.43-50.83,9.15-76.28.33-2.12.53-4.31.73-6.49,2.25-20.41,4.24-40.83,6.03-61.24-21.87,1.72-43.74,2.72-65.61,2.92-3.05.07-4.51-.53-4.57-1.59-.66-11.8,179.87-84.83,266.16-38.31,24.79,13.25,41.82,36.52,44.54,73.9,2.45,33.93-13.32,68.66-40.56,89.14Z"/>
</svg>